<svg xmlns="http://www.w3.org/2000/svg" version="1.1" xmlns:xlink="http://www.w3.org/1999/xlink" xmlns:svgjs="http://svgjs.dev/svgjs" width="1000" height="277" viewBox="0 0 1000 277"><g transform="matrix(1,0,0,1,-0.6060606060606233,-0.37494266127220044)"><svg viewBox="0 0 396 110" data-background-color="#ffffff" preserveAspectRatio="xMidYMid meet" height="277" width="1000" xmlns="http://www.w3.org/2000/svg" xmlns:xlink="http://www.w3.org/1999/xlink"><g id="tight-bounds" transform="matrix(1,0,0,1,0.2400000000000091,0.14889419761712475)"><svg viewBox="0 0 395.52 109.70221160476574" height="109.70221160476574" width="395.52"><g><svg viewBox="0 0 562.6756635138538 156.06483794409576" height="109.70221160476574" width="395.52"><g><rect width="5.016086108830168" height="156.06483794409576" x="149.00846193688187" y="0" fill="#ba3b0a" opacity="1" stroke-width="0" stroke="transparent" fill-opacity="1" class="rect-o-0" data-fill-palette-color="primary" rx="1%" id="o-0" data-palette-color="#ba3b0a"></rect></g><g transform="matrix(1,0,0,1,167.15566351385382,0.3882209899106783)"><svg viewBox="0 0 395.52 155.2883959642744" height="155.2883959642744" width="395.52"><g id="textblocktransform"><svg viewBox="0 0 395.52 155.2883959642744" height="155.2883959642744" width="395.52" id="textblock"><g><svg viewBox="0 0 395.52 120.48953642384106" height="120.48953642384106" width="395.52"><g transform="matrix(1,0,0,1,0,0)"><svg width="395.52" viewBox="2.8000001907348633 -35.500003814697266 256.70001220703125 75.20000457763672" height="120.48953642384106" data-palette-color="#ba3b0a"><svg></svg><svg></svg><g class="wordmark-text-0" data-fill-palette-color="primary" id="text-0"><path xmlns="http://www.w3.org/2000/svg" d="M18 0h-15.2v-4.6h4.75v-25.7h-4.75v-4.6h15.2v4.6h-4.8v25.7h4.8zM45.9 0l-11.4-19.3-3.85-7.4h-0.15v26.7h-5.4v-34.9h6.3l11.4 19.3 3.85 7.4h0.15v-26.7h5.4v34.9zM71.25 0.6v0c-2.933 0-5.427-0.533-7.48-1.6-2.047-1.067-3.803-2.5-5.27-4.3v0l3.9-3.65c1.233 1.5 2.59 2.633 4.07 3.4 1.487 0.767 3.18 1.15 5.08 1.15v0c2.233 0 3.917-0.5 5.05-1.5 1.133-1 1.7-2.35 1.7-4.05v0c0-1.367-0.4-2.45-1.2-3.25-0.8-0.8-2.217-1.4-4.25-1.8v0l-3.1-0.55c-3.4-0.633-5.95-1.75-7.65-3.35-1.7-1.6-2.55-3.8-2.55-6.6v0c0-1.533 0.29-2.927 0.87-4.18 0.587-1.247 1.407-2.297 2.46-3.15 1.047-0.847 2.32-1.503 3.82-1.97 1.5-0.467 3.183-0.7 5.05-0.7v0c2.633 0 4.917 0.457 6.85 1.37 1.933 0.92 3.583 2.247 4.95 3.98v0l-3.95 3.5c-0.9-1.167-2-2.1-3.3-2.8-1.3-0.7-2.917-1.05-4.85-1.05v0c-2 0-3.55 0.4-4.65 1.2-1.1 0.8-1.65 1.967-1.65 3.5v0c0 1.467 0.45 2.557 1.35 3.27 0.9 0.72 2.3 1.263 4.2 1.63v0l3.1 0.65c3.5 0.667 6.057 1.8 7.67 3.4 1.62 1.6 2.43 3.8 2.43 6.6v0c0 1.633-0.283 3.117-0.85 4.45-0.567 1.333-1.39 2.473-2.47 3.42-1.087 0.953-2.413 1.687-3.98 2.2-1.567 0.52-3.35 0.78-5.35 0.78zM96.35 0h-5.65v-34.9h15c3.233 0 5.733 0.95 7.5 2.85 1.767 1.9 2.65 4.45 2.65 7.65v0c0 3.2-0.883 5.75-2.65 7.65-1.767 1.9-4.267 2.85-7.5 2.85v0h-9.35zM96.35-29.95v11.1h9c1.433 0 2.55-0.377 3.35-1.13 0.8-0.747 1.2-1.82 1.2-3.22v0-2.4c0-1.4-0.4-2.477-1.2-3.23-0.8-0.747-1.917-1.12-3.35-1.12v0zM135.75 0h-15.2v-4.6h4.75v-25.7h-4.75v-4.6h15.2v4.6h-4.8v25.7h4.8zM148.5-14.1v14.1h-5.65v-34.9h15.05c3.133 0 5.6 0.94 7.4 2.82 1.8 1.887 2.7 4.447 2.7 7.68v0c0 2.5-0.573 4.573-1.72 6.22-1.153 1.653-2.847 2.813-5.08 3.48v0l7.55 14.7h-6.3l-7-14.1zM148.5-18.85h9c1.433 0 2.55-0.377 3.35-1.13 0.8-0.747 1.2-1.82 1.2-3.22v0-2.4c0-1.4-0.4-2.477-1.2-3.23-0.8-0.747-1.917-1.12-3.35-1.12v0h-9zM189.3 0h-15.2v-4.6h4.75v-25.7h-4.75v-4.6h15.2v4.6h-4.8v25.7h4.8zM217.2 0l-11.4-19.3-3.85-7.4h-0.15v26.7h-5.4v-34.9h6.3l11.4 19.3 3.85 7.4h0.15v-26.7h5.4v34.9zM254.55 0v-5.3h-0.2c-0.367 1.7-1.357 3.11-2.97 4.23-1.62 1.113-3.763 1.67-6.43 1.67v0c-2.067 0-3.983-0.393-5.75-1.18-1.767-0.78-3.29-1.93-4.57-3.45-1.287-1.513-2.287-3.397-3-5.65-0.72-2.247-1.08-4.837-1.08-7.77v0c0-2.9 0.367-5.477 1.1-7.73 0.733-2.247 1.767-4.137 3.1-5.67 1.333-1.533 2.933-2.693 4.8-3.48 1.867-0.78 3.95-1.17 6.25-1.17v0c3.133 0 5.783 0.69 7.95 2.07 2.167 1.387 3.85 3.313 5.05 5.78v0l-4.6 2.7c-0.667-1.633-1.7-2.96-3.1-3.98-1.4-1.013-3.167-1.52-5.3-1.52v0c-2.767 0-4.99 0.883-6.67 2.65-1.687 1.767-2.53 4.267-2.53 7.5v0 5.7c0 3.233 0.843 5.733 2.53 7.5 1.68 1.767 3.903 2.65 6.67 2.65v0c1.1 0 2.15-0.143 3.15-0.43 1-0.28 1.877-0.697 2.63-1.25 0.747-0.547 1.347-1.23 1.8-2.05 0.447-0.813 0.67-1.77 0.67-2.87v0-2.7h-7.2v-4.85h12.65v18.6z" fill="#ba3b0a" fill-rule="nonzero" stroke="none" stroke-width="1" stroke-linecap="butt" stroke-linejoin="miter" stroke-miterlimit="10" stroke-dasharray="" stroke-dashoffset="0" font-family="none" font-weight="none" font-size="none" text-anchor="none" style="mix-blend-mode: normal" data-fill-palette-color="primary" opacity="1"></path><path xmlns="http://www.w3.org/2000/svg" d="M9.95 39.1h-5.65v-34.9h15c3.233 0 5.733 0.95 7.5 2.85 1.767 1.9 2.65 4.45 2.65 7.65v0c0 3.2-0.883 5.75-2.65 7.65-1.767 1.9-4.267 2.85-7.5 2.85v0h-9.35zM9.95 9.15v11.1h9c1.433 0 2.55-0.377 3.35-1.13 0.8-0.747 1.2-1.82 1.2-3.22v0-2.4c0-1.4-0.4-2.477-1.2-3.23-0.8-0.747-1.917-1.12-3.35-1.12v0zM41.3 25v14.1h-5.65v-34.9h15.05c3.133 0 5.6 0.94 7.4 2.82 1.8 1.887 2.7 4.447 2.7 7.68v0c0 2.5-0.573 4.573-1.72 6.22-1.153 1.653-2.847 2.813-5.08 3.48v0l7.55 14.7h-6.3l-7-14.1zM41.3 20.25h9c1.433 0 2.55-0.377 3.35-1.13 0.8-0.747 1.2-1.82 1.2-3.22v0-2.4c0-1.4-0.4-2.477-1.2-3.23-0.8-0.747-1.917-1.12-3.35-1.12v0h-9zM81.4 39.7v0c-2.267 0-4.327-0.393-6.18-1.18-1.847-0.78-3.43-1.93-4.75-3.45-1.313-1.513-2.33-3.397-3.05-5.65-0.713-2.247-1.07-4.837-1.07-7.77v0c0-2.933 0.357-5.527 1.07-7.78 0.72-2.247 1.737-4.13 3.05-5.65 1.32-1.513 2.903-2.663 4.75-3.45 1.853-0.78 3.913-1.17 6.18-1.17v0c2.267 0 4.323 0.39 6.17 1.17 1.853 0.787 3.437 1.937 4.75 3.45 1.32 1.52 2.34 3.403 3.06 5.65 0.713 2.253 1.07 4.847 1.07 7.78v0c0 2.933-0.357 5.523-1.07 7.77-0.72 2.253-1.74 4.137-3.06 5.65-1.313 1.52-2.897 2.67-4.75 3.45-1.847 0.787-3.903 1.18-6.17 1.18zM81.4 34.65v0c1.333 0 2.557-0.233 3.67-0.7 1.12-0.467 2.07-1.143 2.85-2.03 0.787-0.88 1.397-1.953 1.83-3.22 0.433-1.267 0.65-2.7 0.65-4.3v0-5.5c0-1.6-0.217-3.033-0.65-4.3-0.433-1.267-1.043-2.343-1.83-3.23-0.78-0.88-1.73-1.553-2.85-2.02-1.113-0.467-2.337-0.7-3.67-0.7v0c-1.367 0-2.6 0.233-3.7 0.7-1.1 0.467-2.04 1.14-2.82 2.02-0.787 0.887-1.397 1.963-1.83 3.23-0.433 1.267-0.65 2.7-0.65 4.3v0 5.5c0 1.6 0.217 3.033 0.65 4.3 0.433 1.267 1.043 2.34 1.83 3.22 0.78 0.887 1.72 1.563 2.82 2.03 1.1 0.467 2.333 0.7 3.7 0.7zM130.2 39.1v-26.7h-0.25l-2.75 5.65-7.65 13.95-7.65-13.95-2.75-5.65h-0.25v26.7h-5.4v-34.9h6.7l9.35 17.75h0.3l9.35-17.75h6.4v34.9zM149.85 39.1h-5.65v-34.9h15c3.233 0 5.733 0.95 7.5 2.85 1.767 1.9 2.65 4.45 2.65 7.65v0c0 3.2-0.883 5.75-2.65 7.65-1.767 1.9-4.267 2.85-7.5 2.85v0h-9.35zM149.85 9.15v11.1h9c1.433 0 2.55-0.377 3.35-1.13 0.8-0.747 1.2-1.82 1.2-3.22v0-2.4c0-1.4-0.4-2.477-1.2-3.23-0.8-0.747-1.917-1.12-3.35-1.12v0zM198.9 9.2h-10.4v29.9h-5.65v-29.9h-10.4v-5h26.45zM214.3 39.7v0c-2.933 0-5.427-0.533-7.48-1.6-2.047-1.067-3.803-2.5-5.27-4.3v0l3.9-3.65c1.233 1.5 2.59 2.633 4.07 3.4 1.487 0.767 3.18 1.15 5.08 1.15v0c2.233 0 3.917-0.5 5.05-1.5 1.133-1 1.7-2.35 1.7-4.05v0c0-1.367-0.4-2.45-1.2-3.25-0.8-0.8-2.217-1.4-4.25-1.8v0l-3.1-0.55c-3.4-0.633-5.95-1.75-7.65-3.35-1.7-1.6-2.55-3.8-2.55-6.6v0c0-1.533 0.29-2.927 0.87-4.18 0.587-1.247 1.403-2.297 2.45-3.15 1.053-0.847 2.33-1.503 3.83-1.97 1.5-0.467 3.183-0.7 5.05-0.7v0c2.633 0 4.917 0.457 6.85 1.37 1.933 0.92 3.583 2.247 4.95 3.98v0l-3.95 3.5c-0.9-1.167-2-2.1-3.3-2.8-1.3-0.7-2.917-1.05-4.85-1.05v0c-2 0-3.55 0.4-4.65 1.2-1.1 0.8-1.65 1.967-1.65 3.5v0c0 1.467 0.45 2.557 1.35 3.27 0.9 0.72 2.3 1.263 4.2 1.63v0l3.1 0.65c3.5 0.667 6.057 1.8 7.67 3.4 1.62 1.6 2.43 3.8 2.43 6.6v0c0 1.633-0.283 3.117-0.85 4.45-0.567 1.333-1.393 2.473-2.48 3.42-1.08 0.953-2.403 1.687-3.97 2.2-1.567 0.52-3.35 0.78-5.35 0.78z" fill="#ba3b0a" fill-rule="nonzero" stroke="none" stroke-width="1" stroke-linecap="butt" stroke-linejoin="miter" stroke-miterlimit="10" stroke-dasharray="" stroke-dashoffset="0" font-family="none" font-weight="none" font-size="none" text-anchor="none" style="mix-blend-mode: normal" data-fill-palette-color="primary" opacity="1"></path></g></svg></g></svg></g><g transform="matrix(1,0,0,1,0,133.62065189198285)"><svg viewBox="0 0 232.209792 21.667744072291523" height="21.667744072291523" width="232.209792"><g transform="matrix(1,0,0,1,0,0)"><svg width="232.209792" viewBox="0.10000000149011612 -36.5 509.0099792480469 47.5" height="21.667744072291523" data-palette-color="#e8772e"><path d="M5.15 0L0.1 0 12-31.65Q12.8-33.7 14.2-34.65 15.6-35.6 17.45-35.6L17.45-35.6Q19.3-35.6 20.73-34.68 22.15-33.75 22.9-31.7L22.9-31.7 34.85 0 29.6 0 26.55-8.45 8.25-8.45 5.15 0ZM16.15-30.05L9.75-12.7 25.1-12.7 18.85-30.05Q18.6-30.7 18.3-31.05 18-31.4 17.45-31.4L17.45-31.4Q16.95-31.4 16.65-31.05 16.35-30.7 16.15-30.05L16.15-30.05ZM55.8 0L37.55 0 37.55-4.25 44.3-4.25 44.3-30.75 37.55-30.75 37.55-35 55.8-35 55.8-30.75 49.1-30.75 49.1-4.25 55.8-4.25 55.8 0ZM72.55-10.95L58.4-10.95 58.4-15.15 72.55-15.15 72.55-10.95ZM83.14 0L78.34 0 78.34-35 93.09-35Q96.39-35 99.09-33.52 101.79-32.05 103.39-29.4 104.99-26.75 104.99-23.2L104.99-23.2Q104.99-19.75 103.42-17.1 101.84-14.45 99.14-12.95 96.44-11.45 92.99-11.45L92.99-11.45 83.14-11.45 83.14 0ZM83.14-30.75L83.14-15.7 92.44-15.7Q94.59-15.7 96.37-16.57 98.14-17.45 99.17-19.15 100.19-20.85 100.19-23.2L100.19-23.2Q100.19-25.6 99.17-27.28 98.14-28.95 96.37-29.85 94.59-30.75 92.49-30.75L92.49-30.75 83.14-30.75ZM121.59 0.6L121.59 0.6Q117.69 0.6 114.69-1.18 111.69-2.95 109.94-5.98 108.19-9 108.19-12.75L108.19-12.75Q108.19-16.5 109.94-19.53 111.69-22.55 114.69-24.33 117.69-26.1 121.59-26.1L121.59-26.1Q125.49-26.1 128.52-24.33 131.54-22.55 133.27-19.53 134.99-16.5 134.99-12.75L134.99-12.75Q134.99-9 133.27-5.98 131.54-2.95 128.52-1.18 125.49 0.6 121.59 0.6ZM121.59-3.35L121.59-3.35Q124.24-3.35 126.19-4.6 128.14-5.85 129.24-7.98 130.34-10.1 130.34-12.75L130.34-12.75Q130.34-15.4 129.24-17.53 128.14-19.65 126.19-20.9 124.24-22.15 121.59-22.15L121.59-22.15Q118.99-22.15 117.02-20.9 115.04-19.65 113.94-17.53 112.84-15.4 112.84-12.75L112.84-12.75Q112.84-10.1 113.94-7.98 115.04-5.85 117.02-4.6 118.99-3.35 121.59-3.35ZM149.44 0.6L149.44 0.6Q147.04 0.6 145.11-0.33 143.19-1.25 142.04-3.23 140.89-5.2 140.89-8.3L140.89-8.3 140.89-25.5 145.49-25.5 145.49-7.5Q145.49-6.15 146.04-5.2 146.59-4.25 147.49-3.8 148.39-3.35 149.39-3.35L149.39-3.35Q150.39-3.35 151.29-3.83 152.19-4.3 152.76-5.23 153.34-6.15 153.34-7.5L153.34-7.5 153.34-17.4Q153.34-20.35 154.44-22.28 155.54-24.2 157.44-25.15 159.34-26.1 161.74-26.1L161.74-26.1Q164.14-26.1 166.04-25.15 167.94-24.2 169.04-22.28 170.14-20.35 170.14-17.4L170.14-17.4 170.14-7.5Q170.14-6.15 170.69-5.23 171.24-4.3 172.14-3.83 173.04-3.35 174.09-3.35L174.09-3.35Q175.14-3.35 175.99-3.83 176.84-4.3 177.39-5.23 177.94-6.15 177.94-7.5L177.94-7.5 177.94-25.5 182.59-25.5 182.59-8.3Q182.59-5.2 181.44-3.23 180.29-1.25 178.36-0.33 176.44 0.6 174.09 0.6L174.09 0.6Q171.79 0.6 169.84-0.33 167.89-1.25 166.71-3.23 165.54-5.2 165.54-8.3L165.54-8.3 165.54-18.1Q165.54-19.5 164.99-20.4 164.44-21.3 163.59-21.73 162.74-22.15 161.74-22.15L161.74-22.15Q160.74-22.15 159.86-21.73 158.99-21.3 158.46-20.4 157.94-19.5 157.94-18.1L157.94-18.1 157.94-8.3Q157.94-5.2 156.76-3.23 155.59-1.25 153.66-0.33 151.74 0.6 149.44 0.6ZM209.39 0L202.84 0Q198.64 0 195.39-1.58 192.14-3.15 190.31-6.03 188.49-8.9 188.49-12.75L188.49-12.75Q188.49-16.55 190.04-19.58 191.59-22.6 194.34-24.35 197.09-26.1 200.74-26.1L200.74-26.1Q204.69-26.1 207.31-24.4 209.94-22.7 211.24-19.83 212.54-16.95 212.54-13.4L212.54-13.4Q212.54-12.85 212.51-12.25 212.49-11.65 212.39-11.2L212.39-11.2 193.39-11.2Q193.64-8.85 194.94-7.23 196.24-5.6 198.26-4.78 200.29-3.95 202.74-3.95L202.74-3.95 209.39-3.95 209.39 0ZM193.34-14.45L193.34-14.45 207.89-14.45Q207.89-15.4 207.69-16.48 207.49-17.55 206.99-18.57 206.49-19.6 205.66-20.43 204.84-21.25 203.61-21.75 202.39-22.25 200.74-22.25L200.74-22.25Q198.99-22.25 197.66-21.58 196.34-20.9 195.39-19.78 194.44-18.65 193.94-17.25 193.44-15.85 193.34-14.45ZM222.83 0L218.23 0 218.23-18.25Q218.23-21.65 220.16-23.58 222.08-25.5 225.48-25.5L225.48-25.5 230.73-25.5 230.73-21.55 226.33-21.55Q224.68-21.55 223.76-20.6 222.83-19.65 222.83-17.95L222.83-17.95 222.83 0ZM254.48 0L247.93 0Q243.73 0 240.48-1.58 237.23-3.15 235.41-6.03 233.58-8.9 233.58-12.75L233.58-12.75Q233.58-16.55 235.13-19.58 236.68-22.6 239.43-24.35 242.18-26.1 245.83-26.1L245.83-26.1Q249.78-26.1 252.41-24.4 255.03-22.7 256.33-19.83 257.63-16.95 257.63-13.4L257.63-13.4Q257.63-12.85 257.61-12.25 257.58-11.65 257.48-11.2L257.48-11.2 238.48-11.2Q238.73-8.85 240.03-7.23 241.33-5.6 243.36-4.78 245.38-3.95 247.83-3.95L247.83-3.95 254.48-3.95 254.48 0ZM238.43-14.45L238.43-14.45 252.98-14.45Q252.98-15.4 252.78-16.48 252.58-17.55 252.08-18.57 251.58-19.6 250.76-20.43 249.93-21.25 248.71-21.75 247.48-22.25 245.83-22.25L245.83-22.25Q244.08-22.25 242.76-21.58 241.43-20.9 240.48-19.78 239.53-18.65 239.03-17.25 238.53-15.85 238.43-14.45ZM275.23 0.6L275.23 0.6Q278.93 0.6 281.88-1 284.83-2.6 286.55-5.63 288.28-8.65 288.28-12.9L288.28-12.9 288.28-36.5 283.68-36.5 283.68-20.95 283.58-20.95Q282.73-22.5 281.35-23.65 279.98-24.8 278.2-25.45 276.43-26.1 274.48-26.1L274.48-26.1Q270.93-26.1 268.13-24.5 265.33-22.9 263.7-19.98 262.08-17.05 262.08-13.05L262.08-13.05Q262.08-9.9 263.05-7.38 264.03-4.85 265.78-3.05 267.53-1.25 269.93-0.33 272.33 0.6 275.23 0.6ZM275.23-3.35L275.23-3.35Q272.88-3.35 270.95-4.5 269.03-5.65 267.88-7.75 266.73-9.85 266.73-12.75L266.73-12.75Q266.73-15.55 267.85-17.65 268.98-19.75 270.88-20.95 272.78-22.15 275.18-22.15L275.18-22.15Q277.53-22.15 279.45-21 281.38-19.85 282.5-17.73 283.63-15.6 283.63-12.7L283.63-12.7Q283.63-9.85 282.5-7.75 281.38-5.65 279.45-4.5 277.53-3.35 275.23-3.35ZM313.62 0L308.82 0 308.82-35 323.57-35Q326.87-35 329.57-33.52 332.27-32.05 333.87-29.4 335.47-26.75 335.47-23.2L335.47-23.2Q335.47-19.75 333.9-17.1 332.32-14.45 329.62-12.95 326.92-11.45 323.47-11.45L323.47-11.45 313.62-11.45 313.62 0ZM313.62-30.75L313.62-15.7 322.92-15.7Q325.07-15.7 326.85-16.57 328.62-17.45 329.65-19.15 330.67-20.85 330.67-23.2L330.67-23.2Q330.67-25.6 329.65-27.28 328.62-28.95 326.85-29.85 325.07-30.75 322.97-30.75L322.97-30.75 313.62-30.75ZM345.52 0L340.92 0 340.92-18.25Q340.92-21.65 342.85-23.58 344.77-25.5 348.17-25.5L348.17-25.5 353.42-25.5 353.42-21.55 349.02-21.55Q347.37-21.55 346.44-20.6 345.52-19.65 345.52-17.95L345.52-17.95 345.52 0ZM369.67 0.6L369.67 0.6Q365.77 0.6 362.77-1.18 359.77-2.95 358.02-5.98 356.27-9 356.27-12.75L356.27-12.75Q356.27-16.5 358.02-19.53 359.77-22.55 362.77-24.33 365.77-26.1 369.67-26.1L369.67-26.1Q373.57-26.1 376.59-24.33 379.62-22.55 381.34-19.53 383.07-16.5 383.07-12.75L383.07-12.75Q383.07-9 381.34-5.98 379.62-2.95 376.59-1.18 373.57 0.6 369.67 0.6ZM369.67-3.35L369.67-3.35Q372.32-3.35 374.27-4.6 376.22-5.85 377.32-7.98 378.42-10.1 378.42-12.75L378.42-12.75Q378.42-15.4 377.32-17.53 376.22-19.65 374.27-20.9 372.32-22.15 369.67-22.15L369.67-22.15Q367.07-22.15 365.09-20.9 363.12-19.65 362.02-17.53 360.92-15.4 360.92-12.75L360.92-12.75Q360.92-10.1 362.02-7.98 363.12-5.85 365.09-4.6 367.07-3.35 369.67-3.35ZM393.57 0L388.97 0 388.97-15.35Q388.97-18.3 390.32-20.75 391.67-23.2 394.22-24.65 396.77-26.1 400.37-26.1L400.37-26.1Q402.12-26.1 403.87-25.63 405.62-25.15 407.12-24.03 408.62-22.9 409.52-21L409.52-21 409.57-21Q410.57-22.9 412.07-24.03 413.57-25.15 415.32-25.63 417.07-26.1 418.87-26.1L418.87-26.1Q422.42-26.1 424.97-24.65 427.52-23.2 428.87-20.75 430.22-18.3 430.22-15.35L430.22-15.35 430.22 0 425.62 0 425.62-15.35Q425.62-17.25 424.72-18.8 423.82-20.35 422.29-21.25 420.77-22.15 418.82-22.15L418.82-22.15Q416.92-22.15 415.32-21.23 413.72-20.3 412.79-18.78 411.87-17.25 411.87-15.35L411.87-15.35 411.87 0 407.27 0 407.27-15.35Q407.27-17.25 406.34-18.78 405.42-20.3 403.84-21.23 402.27-22.15 400.32-22.15L400.32-22.15Q398.42-22.15 396.89-21.25 395.37-20.35 394.47-18.8 393.57-17.25 393.57-15.35L393.57-15.35 393.57 0ZM450.41-26.1L450.41-26.1Q446.71-26.1 443.76-24.5 440.81-22.9 439.09-19.88 437.36-16.85 437.36-12.6L437.36-12.6 437.36 11 441.96 11 441.96-4.55 442.06-4.55Q442.91-3 444.29-1.85 445.66-0.7 447.44-0.05 449.21 0.6 451.16 0.6L451.16 0.6Q454.71 0.6 457.51-1 460.31-2.6 461.94-5.53 463.56-8.45 463.56-12.45L463.56-12.45Q463.56-15.6 462.59-18.13 461.61-20.65 459.86-22.45 458.11-24.25 455.71-25.18 453.31-26.1 450.41-26.1ZM450.41-22.15L450.41-22.15Q452.76-22.15 454.69-21 456.61-19.85 457.76-17.75 458.91-15.65 458.91-12.75L458.91-12.75Q458.91-9.95 457.79-7.85 456.66-5.75 454.76-4.55 452.86-3.35 450.46-3.35L450.46-3.35Q448.11-3.35 446.19-4.5 444.26-5.65 443.14-7.78 442.01-9.9 442.01-12.8L442.01-12.8Q442.01-15.65 443.14-17.75 444.26-19.85 446.19-21 448.11-22.15 450.41-22.15ZM483.16 0L477.16 0Q473.76 0 471.84-1.95 469.91-3.9 469.91-7.25L469.91-7.25 469.91-31.9 474.51-31.9 474.51-7.55Q474.51-5.9 475.44-4.93 476.36-3.95 478.01-3.95L478.01-3.95 483.16-3.95 483.16 0ZM483.26-21.55L465.51-21.55 465.51-25.5 483.26-25.5 483.26-21.55ZM501.21 0L488.46 0 488.46-3.95 500.66-3.95Q501.86-3.95 502.73-4.48 503.61-5 504.06-5.85 504.51-6.7 504.51-7.65L504.51-7.65Q504.51-8.55 504.11-9.33 503.71-10.1 502.88-10.58 502.06-11.05 500.91-11.05L500.91-11.05 495.76-11.05Q493.31-11.05 491.48-11.88 489.66-12.7 488.63-14.3 487.61-15.9 487.61-18.2L487.61-18.2Q487.61-20.15 488.56-21.8 489.51-23.45 491.21-24.48 492.91-25.5 495.11-25.5L495.11-25.5 506.86-25.5 506.86-21.55 495.56-21.55Q494.01-21.55 493.11-20.6 492.21-19.65 492.21-18.35L492.21-18.35Q492.21-17.1 493.13-16.18 494.06-15.25 495.76-15.25L495.76-15.25 500.66-15.25Q503.41-15.25 505.28-14.38 507.16-13.5 508.13-11.85 509.11-10.2 509.11-7.8L509.11-7.8Q509.11-5.75 508.11-3.98 507.11-2.2 505.33-1.1 503.56 0 501.21 0L501.21 0Z" opacity="1" transform="matrix(1,0,0,1,0,0)" fill="#e8772e" class="slogan-text-1" data-fill-palette-color="secondary" id="text-1"></path></svg></g></svg></g></svg></g></svg></g><g transform="matrix(1,0,0,1,0,0.3882209899106783)"><svg viewBox="0 0 135.8773464687401 155.2883959642744" height="155.2883959642744" width="135.8773464687401"><g><svg xmlns="http://www.w3.org/2000/svg" xmlns:xlink="http://www.w3.org/1999/xlink" version="1.1" x="0" y="0" viewBox="0 0 28 32" style="enable-background:new 0 0 28 32;" xml:space="preserve" height="155.2883959642744" width="135.8773464687401" class="icon-icon-0" data-fill-palette-color="accent" id="icon-0"><g fill="#e8772e" data-fill-palette-color="accent"><g fill="#e8772e" data-fill-palette-color="accent"><g fill="#e8772e" data-fill-palette-color="accent"><polygon points="9.815,21.969 11.702,21.969 10.798,19.994    " fill="#e8772e" data-fill-palette-color="accent"></polygon><path d="M23 15H1c-0.55 0-1 0.45-1 1v10c0 0.55 0.45 1 1 1h22c0.551 0 1-0.45 1-1V16C24 15.45 23.551 15 23 15zM12.622 23.729l-0.353-0.704h-2.95l-0.344 0.704C8.847 24 8.551 24.057 8.264 24c-0.256-0.145-0.416-0.432-0.256-0.768l2.294-4.485c0.216-0.424 0.792-0.44 0.992 0l2.254 4.485C13.876 23.855 12.909 24.352 12.622 23.729zM15.559 23.512c0 0.664-1.055 0.68-1.055 0v-4.564c0-0.656 1.055-0.68 1.055 0V23.512z" fill="#e8772e" data-fill-palette-color="accent"></path></g><path d="M27 7.586L20.414 1C19.836 0.42 18.82 0 18 0H7C5.346 0 4 1.346 4 3v10c0 0.553 0.447 1 1 1s1-0.447 1-1V3c0-0.551 0.448-1 1-1h9c1.105 0 2 0.896 2 2v3.75C18 8.988 19.014 10 20.25 10H24c1.105 0 2 0.896 2 2v17c0 0.551-0.447 1-1 1H7c-0.552 0-1-0.449-1-1 0-0.553-0.447-1-1-1s-1 0.447-1 1c0 1.654 1.346 3 3 3h18c1.654 0 3-1.346 3-3V10C28 9.181 27.58 8.165 27 7.586z" fill="#e8772e" data-fill-palette-color="accent"></path></g></g></svg></g></svg></g></svg></g><defs></defs></svg><rect width="395.52" height="109.70221160476574" fill="none" stroke="none" visibility="hidden"></rect></g></svg></g></svg>